<svg width="34" height="34" viewBox="0 0 34 34" fill="none" xmlns="http://www.w3.org/2000/svg">
<path d="M16.9672 24.1175C20.9164 24.1175 24.118 20.9159 24.118 16.9667C24.118 13.0174 20.9164 9.81592 16.9672 9.81592C13.0179 9.81592 9.81641 13.0174 9.81641 16.9667C9.81641 20.9159 13.0179 24.1175 16.9672 24.1175Z" stroke="white" stroke-width="1.75521" stroke-linecap="round" stroke-linejoin="round"/>
<path d="M0.876953 24.1178V9.8162C0.876953 4.8796 4.87887 0.877686 9.81546 0.877686H24.1171C29.0536 0.877686 33.0556 4.8796 33.0556 9.8162V24.1178C33.0556 29.0544 29.0536 33.0563 24.1171 33.0563H9.81546C4.87887 33.0563 0.876953 29.0544 0.876953 24.1178Z" stroke="white" stroke-width="1.75521"/>
<path d="M26.7988 7.15455L26.8186 7.13257" stroke="white" stroke-width="4.02233" stroke-linecap="round" stroke-linejoin="round"/>
</svg>
